<svg width="18" height="18" viewBox="0 0 18 18" fill="none" xmlns="http://www.w3.org/2000/svg">
<g clip-path="url(#clip0_6034_10392)">
<path d="M9.15695 18H8.87617C8.82086 17.9695 8.76461 17.9409 8.7107 17.9086C4.94008 15.6628 2.32539 12.4748 0.91586 8.31373C0.324297 6.56764 0.0472657 4.76623 0.0322657 2.9231C0.029922 2.64935 0.132578 2.45107 0.376328 2.32404C0.526328 2.24576 0.670703 2.15623 0.820703 2.07795C4.15773 0.331855 7.69164 -0.304708 11.4262 0.202011C13.5918 0.495917 15.6238 1.18967 17.533 2.25139C17.7313 2.36154 17.9048 2.48576 17.9999 2.69764V3.57514C17.9896 3.6431 17.9741 3.71107 17.9704 3.77951C17.8851 5.47779 17.5607 7.1306 16.9752 8.72576C15.493 12.7622 12.8798 15.8503 9.15695 18.0004V18ZM9.04117 1.15123L9.03648 1.1081C8.21102 1.18451 7.38039 1.22623 6.56102 1.34482C4.70148 1.61482 2.94367 2.20873 1.28711 3.10076C1.17977 3.15842 1.15633 3.2217 1.16055 3.33279C1.20086 4.35139 1.31102 5.36201 1.54492 6.35482C2.58883 10.7883 5.02773 14.2354 8.86399 16.6936C8.98024 16.7681 9.05898 16.7662 9.17383 16.6912C13.9851 13.5375 16.5473 9.08811 16.873 3.34545C16.8805 3.21654 16.843 3.14998 16.7277 3.08857C14.3245 1.80889 11.7613 1.16998 9.04117 1.15123Z" fill="white"/>
<path d="M8.99541 9.27405C9.79744 8.42796 10.5854 7.5964 11.3734 6.76436C11.9082 6.19999 12.4421 5.63421 12.9789 5.07171C13.2362 4.80218 13.5774 4.78015 13.8165 5.01171C14.0528 5.24093 14.0471 5.5728 13.7949 5.83905C12.3807 7.33436 10.9656 8.82874 9.54948 10.3222C9.31932 10.565 8.93354 10.6095 8.66916 10.4225C7.73401 9.76108 6.80026 9.0978 5.86791 8.43265C5.63026 8.26296 5.55057 8.00233 5.64807 7.7553C5.74135 7.51905 5.98276 7.36436 6.23448 7.4089C6.34979 7.42905 6.46698 7.48765 6.56448 7.55608C7.32057 8.08577 8.07198 8.62249 8.82526 9.15639C8.87729 9.19343 8.92979 9.22858 8.99541 9.27405Z" fill="white"/>
</g>
<defs>
<clipPath id="clip0_6034_10392">
<rect width="18" height="18" fill="white"/>
</clipPath>
</defs>
</svg>
