<svg width="32" height="32" viewBox="0 0 32 32" fill="none" xmlns="http://www.w3.org/2000/svg">
<rect width="32" height="32" rx="16" fill="#F1F1F1" fill-opacity="0.2"/>
<path d="M23.8578 9.43078C23.4038 8.97656 22.8647 8.61624 22.2714 8.37041C21.6781 8.12458 21.0422 7.99805 20.4 7.99805C19.7578 7.99805 19.1219 8.12458 18.5286 8.37041C17.9353 8.61624 17.3962 8.97656 16.9422 9.43078L16 10.373L15.0578 9.43078C14.1407 8.51372 12.8969 7.99852 11.6 7.99852C10.3031 7.99852 9.05928 8.51372 8.14222 9.43078C7.22516 10.3478 6.70996 11.5916 6.70996 12.8886C6.70996 14.1855 7.22516 15.4293 8.14222 16.3463L9.08444 17.2886L16 24.2041L22.9156 17.2886L23.8578 16.3463C24.312 15.8923 24.6723 15.3533 24.9181 14.76C25.164 14.1667 25.2905 13.5308 25.2905 12.8886C25.2905 12.2463 25.164 11.6104 24.9181 11.0171C24.6723 10.4238 24.312 9.88479 23.8578 9.43078Z" stroke="#1B55EC" stroke-width="2" stroke-linecap="round" stroke-linejoin="round"/>
</svg>
