<svg width="140" height="31" viewBox="0 0 140 31" fill="none" xmlns="http://www.w3.org/2000/svg">
<path d="M18.5573 19.655C16.6477 23.0848 13.6863 24.7527 9.7078 24.7214C7.16258 24.727 4.71685 23.7622 2.89711 22.0348C1.98984 21.1987 1.26567 20.1934 0.767914 19.0793C0.270161 17.9651 0.0090598 16.765 0.000231613 15.5506C-0.00859657 14.3362 0.235032 13.1326 0.716537 12.0117C1.19804 10.8909 1.90753 9.87582 2.80255 9.02731C4.7422 7.20492 7.03473 6.24671 9.7078 6.21537C11.5979 6.18265 13.4567 6.68607 15.0563 7.66388C16.6154 8.61985 17.7616 9.79523 18.4282 11.246L18.7787 12.0206H16.0526C14.6849 9.76388 12.6161 8.59074 9.82543 8.52806C7.94574 8.49671 6.29208 9.14597 4.79525 10.5049C3.23614 11.8952 2.47273 13.5631 2.47273 15.4796C2.48736 17.3375 3.26082 19.1139 4.62332 20.4189C5.98582 21.7239 7.82605 22.4508 9.74009 22.44C12.5723 22.4087 14.6734 21.296 16.0734 19.1356H18.8203L18.5573 19.655Z" fill="#1B55EC"/>
<path d="M38.7026 24.3205H36.3478V21.5712C34.3735 23.7623 31.9542 24.8123 29.0897 24.7212C27.8837 24.6949 26.6956 24.4325 25.5966 23.9497C24.4976 23.4669 23.5104 22.7736 22.6941 21.9115C20.9654 20.1508 20.0169 17.8023 20.0522 15.3703C20.0876 12.9382 21.104 10.6166 22.8832 8.90402C23.7486 8.01506 24.803 7.31967 25.9732 6.86617C27.1433 6.41266 28.4012 6.21192 29.6593 6.27789C30.8829 6.30243 32.0887 6.56674 33.2044 7.05496C34.32 7.54317 35.3226 8.24522 36.1517 9.11894C37.0098 9.94856 37.679 10.9437 38.116 12.0401C38.553 13.1365 38.7481 14.3097 38.6887 15.4839V24.3205H38.7026ZM22.5096 15.3294C22.446 17.1339 23.121 18.8895 24.387 20.2123C24.9829 20.8707 25.7106 21.4046 26.5258 21.7814C27.341 22.1582 28.2267 22.37 29.1289 22.4041C30.0792 22.4619 31.0307 22.3107 31.9124 21.9618C32.7942 21.6129 33.5834 21.0753 34.2213 20.3891C34.9057 19.7207 35.4427 18.924 35.7996 18.0476C36.1565 17.1712 36.3257 16.2334 36.297 15.2914C36.2829 13.5085 35.5522 11.8014 34.2605 10.5339C33.6563 9.89751 32.9202 9.39255 32.1005 9.0522C31.2808 8.71186 30.3962 8.54386 29.5048 8.55924C28.5867 8.54239 27.675 8.70921 26.8262 9.04932C25.9775 9.38943 25.21 9.89553 24.5715 10.5361C23.913 11.1591 23.3909 11.9048 23.0366 12.7285C22.6822 13.5522 22.503 14.4368 22.5096 15.3294Z" fill="#1B55EC"/>
<path d="M43.6044 24.3209H41.0674V6.71034H43.3276V9.21334C43.8321 8.27476 44.621 7.50896 45.5879 7.0193C46.4466 6.56895 47.4121 6.34509 48.3878 6.37004V8.71856C47.3978 8.71194 46.4341 9.0272 45.6501 9.61408C45.0974 10.0228 44.6142 10.5131 44.2179 11.0671C43.805 11.7387 43.6136 12.6342 43.6136 13.785L43.6044 24.3209Z" fill="#1B55EC"/>
<path d="M51.4466 30.4998H49.0918V15.5154C49.0793 14.2938 49.3242 13.0827 49.8112 11.9562C50.2982 10.8298 51.0172 9.81175 51.924 8.96465C53.8336 7.11092 56.0939 6.21539 58.7047 6.30718C59.9099 6.32159 61.0993 6.57578 62.1994 7.05405C63.2994 7.53231 64.2867 8.22448 65.1002 9.08779C65.9523 9.93297 66.6243 10.9329 67.0778 12.0305C67.5314 13.128 67.7575 14.3016 67.7433 15.4841C67.7551 16.7198 67.5097 17.9451 67.0218 19.0865C66.534 20.2279 65.8137 21.2619 64.9042 22.1266C63.0245 23.949 60.7666 24.8446 58.1558 24.7528C55.4827 24.661 53.2547 23.611 51.4396 21.6319L51.4466 30.4998ZM58.677 8.62436C57.7215 8.56273 56.764 8.71199 55.8764 9.06097C54.9889 9.40994 54.1943 9.94955 53.5523 10.6393C52.8797 11.3077 52.3527 12.1008 52.0028 12.9713C51.6529 13.8418 51.4873 14.7717 51.5158 15.7057C51.5298 17.4886 52.2606 19.1956 53.5523 20.4632C54.1592 21.1012 54.8984 21.6073 55.7212 21.948C56.5441 22.2887 57.432 22.4564 58.3264 22.4401C59.2393 22.4543 60.1455 22.2862 60.9886 21.9461C61.8318 21.606 62.5938 21.1013 63.2275 20.4632C63.8912 19.8429 64.4193 19.0992 64.7803 18.2764C65.1412 17.4536 65.3277 16.5687 65.3286 15.6744C65.3543 14.7836 65.1988 13.8966 64.8712 13.0641C64.5435 12.2317 64.05 11.4701 63.4189 10.8229C62.1089 9.42808 60.5498 8.68704 58.677 8.62436Z" fill="#222222"/>
<path d="M72.0548 24.321H69.6377V0.5H72.0548V24.321Z" fill="#222222"/>
<path d="M92.9489 24.3207H90.5941V21.5714C88.6199 23.7625 86.2013 24.8125 83.3383 24.7215C82.1319 24.6953 80.9435 24.433 79.8441 23.9502C78.7447 23.4673 77.7571 22.774 76.9404 21.9117C75.2109 20.1513 74.2621 17.8024 74.2979 15.37C74.3336 12.9376 75.3512 10.616 77.1319 8.90424C77.9973 8.01474 79.0521 7.31902 80.2227 6.86548C81.3933 6.41195 82.6517 6.21151 83.9103 6.27811C85.1338 6.30265 86.3396 6.56696 87.4553 7.05518C88.571 7.54339 89.5735 8.24544 90.4027 9.11916C91.2612 9.94845 91.9307 10.9436 92.3677 12.04C92.8048 13.1365 92.9996 14.3099 92.9397 15.4841V24.3207H92.9489ZM76.749 15.3296C76.6854 17.1341 77.3604 18.8897 78.6264 20.2125C79.2223 20.8709 79.95 21.4048 80.7652 21.7816C81.5804 22.1584 82.4661 22.3702 83.3683 22.4043C84.3189 22.4618 85.2706 22.3105 86.1527 21.9616C87.0348 21.6128 87.8245 21.0754 88.463 20.3894C89.1475 19.721 89.6845 18.9242 90.0413 18.0478C90.3982 17.1714 90.5675 16.2336 90.5388 15.2916C90.5259 13.5085 89.795 11.801 88.5022 10.5341C87.8987 9.89819 87.1633 9.39348 86.3444 9.05315C85.5255 8.71282 84.6418 8.54457 83.7511 8.55946C82.8331 8.54261 81.9213 8.70944 81.0725 9.04954C80.2238 9.38965 79.4563 9.89575 78.8178 10.5363C78.1585 11.1591 77.6354 11.9046 77.2799 12.7282C76.9244 13.5518 76.7438 14.4366 76.749 15.3296Z" fill="#222222"/>
<path d="M110.815 24.2827H108.364V13.9842C108.368 13.2674 108.22 12.5573 107.93 11.898C107.64 11.2388 107.214 10.6443 106.678 10.1514C106.178 9.64104 105.575 9.23629 104.907 8.96241C104.238 8.68852 103.519 8.55138 102.794 8.55956C101.313 8.57241 99.896 9.14924 98.8487 10.1659C97.8013 11.1825 97.2071 12.5577 97.1939 13.9954V24.2939H94.7422V14.2417C94.7422 11.9558 95.5056 10.0708 97.0324 8.55732C98.5592 7.04388 100.471 6.27149 102.798 6.27149C103.864 6.24781 104.922 6.43892 105.908 6.83276C106.893 7.2266 107.783 7.81459 108.523 8.55956C110.05 10.073 110.815 11.9581 110.815 14.2439V24.2827Z" fill="#222222"/>
<path d="M140 24.6925C135.577 24.6925 133.381 22.8679 133.381 19.2231V0.53125H135.83V6.67903H140V8.87306H135.83V18.8201C135.83 21.4462 137.232 22.7447 140 22.7447V24.6925Z" fill="#222222"/>
<path d="M129.148 18.7951H128.652C128.376 18.7956 128.104 18.8562 127.855 18.9725C127.606 19.0887 127.388 19.2576 127.215 19.4667C127.053 19.6677 126.879 19.8605 126.696 20.0444C126.054 20.7306 125.26 21.2665 124.374 21.6115C124.267 21.6535 124.152 21.6698 124.037 21.659C123.922 21.6481 123.812 21.6105 123.716 21.5494C123.62 21.4882 123.54 21.4053 123.484 21.3077C123.428 21.2102 123.397 21.1008 123.394 20.9891C123.375 20.116 123.394 19.2675 123.774 18.4481C124.595 16.6906 126.037 15.7145 128.078 15.5376H129.923C130.709 15.4503 130.972 15.063 131.053 14.7429C130.947 12.6023 130.035 10.5741 128.491 9.04284C127.694 8.19142 126.727 7.50655 125.648 7.03002C124.569 6.55349 123.402 6.29529 122.217 6.27119C119.68 6.17939 117.466 7.05477 115.633 8.86373C114.743 9.69971 114.038 10.7035 113.562 11.8134C113.086 12.9234 112.849 14.1161 112.865 15.3182C112.859 17.6363 113.766 19.8689 115.402 21.5578C116.202 22.4005 117.172 23.0756 118.25 23.5418C119.329 24.008 120.495 24.2555 121.675 24.269C124.212 24.3608 126.429 23.4854 128.26 21.7078C128.831 21.1595 129.331 20.5469 129.752 19.8832C129.819 19.7764 129.856 19.6545 129.859 19.5296C129.863 19.4047 129.832 19.2811 129.771 19.1711C129.71 19.0611 129.62 18.9685 129.511 18.9026C129.402 18.8366 129.277 18.7996 129.148 18.7951ZM115.414 13.769C115.681 12.5113 116.332 11.3608 117.282 10.4667C117.901 9.83485 118.65 9.33662 119.48 9.0045C120.311 8.67238 121.204 8.5138 122.102 8.5391C122.965 8.52588 123.821 8.6909 124.614 9.02322C125.406 9.35555 126.117 9.84758 126.699 10.4667C127.613 11.3699 128.252 12.5013 128.544 13.7354C128.561 13.8002 128.562 13.8679 128.549 13.9334C128.535 13.999 128.507 14.0608 128.465 14.1142C128.424 14.1677 128.371 14.2115 128.31 14.2424C128.249 14.2733 128.181 14.2905 128.112 14.2928C127.986 14.292 127.86 14.2747 127.739 14.2414C126.642 13.9312 125.526 13.6919 124.397 13.5249C123.611 13.4264 122.819 13.374 122.026 13.3682H121.964C121.172 13.374 120.381 13.4263 119.595 13.5249C118.466 13.6917 117.349 13.931 116.253 14.2414C116.131 14.2747 116.006 14.292 115.879 14.2928C115.811 14.2945 115.744 14.2814 115.681 14.2546C115.619 14.2278 115.563 14.1879 115.519 14.1378C115.474 14.0877 115.442 14.0286 115.424 13.9649C115.405 13.9011 115.402 13.8342 115.414 13.769ZM120.571 20.9914C120.569 21.1003 120.541 21.2072 120.488 21.3031C120.435 21.3989 120.358 21.4808 120.265 21.5416C120.172 21.6024 120.065 21.6403 119.954 21.6521C119.842 21.6639 119.729 21.6492 119.625 21.6093C118.651 21.2433 117.781 20.656 117.088 19.8966C116.093 18.8608 115.468 17.5409 115.307 16.1332C115.298 16.0592 115.304 15.984 115.326 15.9126C115.349 15.8412 115.386 15.7752 115.436 15.7188C115.487 15.6623 115.549 15.6169 115.618 15.5853C115.688 15.5537 115.763 15.5367 115.84 15.5354H115.898C117.918 15.7078 119.357 16.6839 120.183 18.4458C120.578 19.2697 120.591 20.1182 120.575 20.9914H120.571ZM121.984 17.1854C121.54 17.189 121.112 17.0209 120.795 16.7182C120.478 16.4155 120.297 16.0029 120.294 15.5712C120.29 15.1395 120.463 14.7241 120.775 14.4164C121.087 14.1086 121.512 13.9337 121.957 13.9302H122.031C122.475 13.9346 122.9 14.1104 123.211 14.4188C123.522 14.7271 123.695 15.1429 123.69 15.5746C123.685 16.0062 123.504 16.4185 123.187 16.7205C122.869 17.0226 122.441 17.1899 121.996 17.1854H121.984Z" fill="#222222"/>
<path d="M121.967 16.9372C122.747 16.9372 123.38 16.3227 123.38 15.5648C123.38 14.8068 122.747 14.1924 121.967 14.1924C121.186 14.1924 120.553 14.8068 120.553 15.5648C120.553 16.3227 121.186 16.9372 121.967 16.9372Z" fill="#1B55EC"/>
</svg>
